<?xml version="1.0" encoding="UTF-8" standalone="no"?>
<!-- Generator: Adobe Illustrator 15.1.0, SVG Export Plug-In . SVG Version: 6.00 Build 0)  -->

<svg
   xmlns:dc="http://purl.org/dc/elements/1.1/"
   xmlns:cc="http://creativecommons.org/ns#"
   xmlns:rdf="http://www.w3.org/1999/02/22-rdf-syntax-ns#"
   xmlns:svg="http://www.w3.org/2000/svg"
   xmlns="http://www.w3.org/2000/svg"
   xmlns:sodipodi="http://sodipodi.sourceforge.net/DTD/sodipodi-0.dtd"
   xmlns:inkscape="http://www.inkscape.org/namespaces/inkscape"
   version="1.1"
   x="0px"
   y="0px"
   width="85.025002"
   height="103.16299"
   viewBox="0 0 85.025001 103.163"
   enable-background="new 0 0 792 612"
   xml:space="preserve"
   id="svg2"
   inkscape:version="0.48.3.1 r9886"
   sodipodi:docname="D-1109 Ayotte FINAL 2C-1.svg"><metadata
   id="metadata147"><rdf:RDF><cc:Work
       rdf:about=""><dc:format>image/svg+xml</dc:format><dc:type
         rdf:resource="http://purl.org/dc/dcmitype/StillImage" /><dc:title></dc:title></cc:Work></rdf:RDF></metadata><defs
   id="defs145">
	
	
	
	
	
	
	
	
</defs><sodipodi:namedview
   pagecolor="#ffffff"
   bordercolor="#666666"
   borderopacity="1"
   objecttolerance="10"
   gridtolerance="10"
   guidetolerance="10"
   inkscape:pageopacity="0"
   inkscape:pageshadow="2"
   inkscape:window-width="1920"
   inkscape:window-height="1144"
   id="namedview143"
   showgrid="false"
   inkscape:zoom="2.1814013"
   inkscape:cx="12.955586"
   inkscape:cy="-23.612855"
   inkscape:window-x="0"
   inkscape:window-y="27"
   inkscape:window-maximized="1"
   inkscape:current-layer="svg2"
   fit-margin-top="0"
   fit-margin-left="0"
   fit-margin-right="0"
   fit-margin-bottom="0" />
<path
   inkscape:connector-curvature="0"
   id="path5"
   d="m -107.863,19.505 v 11.324 c -3.373,-3.838 -7.159,-6.871 -11.3,-9.047 -5.424,-2.849 -11.557,-4.294 -18.229,-4.294 -11.541,0 -21.553,4.211 -29.759,12.516 -8.2,8.3 -12.357,18.43 -12.357,30.105 0,11.913 4.119,22.173 12.242,30.494 8.134,8.333 18.088,12.559 29.586,12.559 6.467,0 12.515,-1.366 17.975,-4.059 4.261,-2.102 8.229,-5.036 11.842,-8.751 v 10.793 h 13.235996 V 19.504 H -107.863 z m 0.648,41.217 c 0,5.631 -1.271,10.756 -3.78,15.231 -2.5,4.457 -6.123,8.043 -10.77,10.66 -4.666,2.628 -9.669,3.96 -14.87,3.96 -5.145,0 -10.029,-1.339 -14.52,-3.98 -4.494,-2.642 -8.126,-6.392 -10.797,-11.146 -2.675,-4.76 -4.031,-9.811 -4.031,-15.014 0,-5.25 1.344,-10.301 3.995,-15.013 2.646,-4.704 6.252,-8.405 10.719,-10.999 4.471,-2.596 9.418,-3.912 14.706,-3.912 8.226,0 15.245,2.906 20.865,8.639 5.629,5.743 8.483,13.002 8.483,21.574 z" /><polygon
   id="polygon7"
   points="319.395,252.574 294.312,310.452 268.481,252.574 254.216,252.574 287.107,326.638 263.976,381.206 278.223,381.206 333.728,252.574 "
   transform="translate(-338.774,-233.069)" /><polygon
   id="polygon9"
   points="461.312,334.215 461.312,264.587 477.298,264.587 477.298,252.574 461.312,252.574 461.312,223.484 447.932,223.484 447.932,252.574 434.18,252.574 434.18,264.587 447.932,264.587 447.932,334.215 "
   transform="translate(-338.774,-233.069)" /><polygon
   id="polygon11"
   points="511.283,334.215 511.283,264.587 527.27,264.587 527.27,252.574 511.283,252.574 511.283,223.484 497.903,223.484 497.903,252.574 484.151,252.574 484.151,264.587 497.903,264.587 497.903,334.215 "
   transform="translate(-338.774,-233.069)" /><path
   inkscape:connector-curvature="0"
   id="path13"
   d="m 266.508,72.653 c -2.974,4.944 -5.748,8.552 -8.248,10.722 -2.482,2.154 -5.548,3.91 -9.111,5.221 -3.572,1.312 -7.297,1.979 -11.073,1.979 -7.873,0 -14.3,-2.69 -19.648,-8.225 -4.951,-5.124 -7.702,-11.705 -8.191,-19.581 h 70.439 l -0.016,-1.665 c -0.1,-11.03 -3.129,-20.382 -9.002,-27.791 -8.267,-10.499 -19.469,-15.823 -33.294,-15.823 -13.445,0 -24.333,5.204 -32.36,15.465 -6.307,8.036 -9.504,17.318 -9.504,27.588 0,10.918 3.771,20.838 11.21,29.481 7.5,8.719 18.009,13.14 31.231,13.14 5.94,0 11.352,-0.921 16.086,-2.738 4.738,-1.818 9.062,-4.508 12.851,-7.994 3.779,-3.477 7.147,-8.091 10.011,-13.715 l 0.739,-1.452 -11.316,-5.945 -0.804,1.333 z M 211.764,50.755 c 1.938,-5.827 4.631,-10.301 8.018,-13.321 5.189,-4.643 11.49,-6.996 18.726,-6.996 4.396,0 8.648,0.941 12.641,2.798 3.976,1.852 7.209,4.311 9.607,7.312 2.081,2.601 3.76,6.027 5.005,10.208 h -53.997 z" /><g
   id="g15"
   transform="translate(-338.774,-233.069)">
		<path
   style="fill:#e36f1e"
   inkscape:connector-curvature="0"
   id="path17"
   d="m 319.267,347.562 c 1.461,0 2.637,0.189 3.529,0.569 0.891,0.38 1.578,0.899 2.06,1.556 0.482,0.658 0.804,1.44 0.964,2.346 0.161,0.906 0.27,1.871 0.329,2.894 l -3.478,0.481 c -0.059,-0.701 -0.125,-1.329 -0.199,-1.885 -0.073,-0.555 -0.228,-1.022 -0.462,-1.402 -0.235,-0.379 -0.565,-0.664 -0.99,-0.855 -0.426,-0.189 -1.006,-0.284 -1.739,-0.284 -0.763,0 -1.373,0.103 -1.827,0.307 -0.455,0.205 -0.807,0.489 -1.056,0.854 -0.25,0.366 -0.418,0.818 -0.506,1.359 -0.088,0.541 -0.132,1.147 -0.132,1.819 0,0.848 0.095,1.585 0.286,2.214 0.191,0.629 0.462,1.184 0.814,1.666 0.352,0.482 0.771,0.906 1.255,1.271 0.483,0.365 1.019,0.723 1.606,1.073 0.88,0.497 1.738,1.017 2.575,1.556 0.835,0.542 1.584,1.214 2.245,2.018 0.66,0.804 1.188,1.797 1.584,2.98 0.396,1.183 0.595,2.682 0.595,4.493 0,2.806 -0.607,4.969 -1.819,6.488 -1.213,1.52 -3.31,2.279 -6.291,2.279 -1.462,0 -2.652,-0.181 -3.573,-0.541 -0.921,-0.36 -1.659,-0.938 -2.214,-1.731 -0.556,-0.793 -0.964,-1.833 -1.228,-3.119 -0.263,-1.286 -0.453,-2.85 -0.57,-4.691 l 3.726,-0.744 c 0.059,1.373 0.161,2.535 0.307,3.484 0.146,0.95 0.357,1.717 0.636,2.302 0.277,0.585 0.65,1.001 1.118,1.249 0.467,0.248 1.066,0.373 1.797,0.373 0.789,0 1.425,-0.117 1.907,-0.352 0.482,-0.234 0.855,-0.578 1.118,-1.031 0.263,-0.453 0.445,-1.024 0.548,-1.712 0.102,-0.688 0.153,-1.485 0.153,-2.394 0,-1.053 -0.103,-1.961 -0.307,-2.721 -0.205,-0.762 -0.504,-1.42 -0.899,-1.977 -0.395,-0.556 -0.884,-1.061 -1.468,-1.514 -0.585,-0.453 -1.243,-0.9 -1.973,-1.34 -0.789,-0.468 -1.542,-0.979 -2.258,-1.535 -0.716,-0.557 -1.359,-1.215 -1.929,-1.977 -0.57,-0.76 -1.023,-1.639 -1.359,-2.634 -0.336,-0.995 -0.504,-2.181 -0.504,-3.556 0,-1.172 0.124,-2.225 0.373,-3.162 0.248,-0.936 0.665,-1.732 1.25,-2.393 0.584,-0.658 1.366,-1.17 2.345,-1.535 0.979,-0.364 2.199,-0.546 3.661,-0.546 z" />
		<path
   style="fill:#e36f1e"
   inkscape:connector-curvature="0"
   id="path19"
   d="m 360.473,347.562 c 2.163,0 3.836,0.35 5.02,1.052 1.184,0.701 2.06,1.753 2.63,3.156 0.57,1.403 0.913,3.163 1.03,5.282 0.117,2.119 0.176,4.596 0.176,7.43 0,2.865 -0.059,5.349 -0.176,7.453 -0.117,2.104 -0.46,3.857 -1.03,5.26 -0.57,1.403 -1.447,2.449 -2.63,3.135 -1.184,0.687 -2.857,1.03 -5.02,1.03 -2.163,0 -3.851,-0.358 -5.063,-1.073 -1.213,-0.717 -2.119,-1.775 -2.718,-3.179 -0.6,-1.403 -0.972,-3.156 -1.118,-5.261 -0.146,-2.104 -0.219,-4.559 -0.219,-7.365 0,-2.775 0.073,-5.216 0.219,-7.32 0.146,-2.104 0.519,-3.872 1.118,-5.305 0.599,-1.432 1.505,-2.505 2.718,-3.221 1.212,-0.716 2.9,-1.074 5.063,-1.074 z m 0,3.419 c -1.052,0 -1.878,0.256 -2.477,0.769 -0.6,0.512 -1.052,1.311 -1.359,2.393 -0.307,1.084 -0.504,2.481 -0.592,4.193 -0.088,1.713 -0.132,3.77 -0.132,6.169 0,2.431 0.044,4.494 0.132,6.191 0.087,1.698 0.285,3.089 0.592,4.171 0.307,1.084 0.759,1.867 1.359,2.35 0.599,0.483 1.425,0.725 2.477,0.725 1.023,0 1.819,-0.241 2.389,-0.725 0.57,-0.482 0.993,-1.266 1.271,-2.35 0.277,-1.082 0.445,-2.473 0.504,-4.171 0.058,-1.697 0.088,-3.761 0.088,-6.191 0,-2.399 -0.03,-4.456 -0.088,-6.169 -0.059,-1.712 -0.227,-3.117 -0.504,-4.215 -0.278,-1.098 -0.702,-1.895 -1.271,-2.393 -0.569,-0.498 -1.366,-0.747 -2.389,-0.747 z" />
		<path
   style="fill:#e36f1e"
   inkscape:connector-curvature="0"
   id="path21"
   d="m 408.123,348.132 v 3.419 h -9.074 v 10.872 h 7.365 l -0.352,3.419 h -7.014 v 14.949 h -4.383 v -32.659 h 13.458 z" />
		<path
   style="fill:#e36f1e"
   inkscape:connector-curvature="0"
   id="path23"
   d="m 446.393,348.132 v 3.419 h -5.567 v 29.24 h -4.34 v -29.24 h -5.437 v -3.419 h 15.344 z" />
		<path
   style="fill:#e36f1e"
   inkscape:connector-curvature="0"
   id="path25"
   d="m 480.979,348.132 h 4.472 l 3.639,25.995 3.244,-25.995 h 4.559 l -5.479,32.659 h -4.252 l -3.945,-26.259 -3.814,26.259 h -4.69 l -5.436,-32.659 h 4.646 l 3.332,26.083 3.724,-26.083 z" />
		<path
   style="fill:#e36f1e"
   inkscape:connector-curvature="0"
   id="path27"
   d="m 531.523,372.943 h -6.094 l -1.358,7.848 h -4.121 l 6.488,-32.659 h 4.603 l 6.575,32.659 h -4.778 l -1.315,-7.848 z m -5.787,-3.419 h 5.393 l -2.631,-14.291 -2.762,14.291 z" />
		<path
   style="fill:#e36f1e"
   inkscape:connector-curvature="0"
   id="path29"
   d="m 572.755,380.791 -3.124,-14.643 h -3.257 v 14.643 h -4.34 v -32.659 h 6.945 c 1.817,0 3.275,0.161 4.375,0.482 1.099,0.321 1.941,0.825 2.527,1.513 0.587,0.687 0.975,1.556 1.165,2.607 0.19,1.053 0.286,2.31 0.286,3.771 0,1.228 -0.052,2.353 -0.153,3.376 -0.103,1.022 -0.293,1.922 -0.57,2.695 -0.278,0.775 -0.657,1.425 -1.14,1.951 -0.482,0.525 -1.104,0.892 -1.863,1.096 l 3.989,15.168 h -4.84 z m -3.225,-17.974 c 0.817,0 1.468,-0.103 1.95,-0.308 0.482,-0.203 0.855,-0.547 1.118,-1.029 0.263,-0.482 0.431,-1.118 0.504,-1.907 0.072,-0.789 0.109,-1.753 0.109,-2.894 0,-0.992 -0.037,-1.833 -0.109,-2.52 -0.073,-0.688 -0.241,-1.234 -0.504,-1.645 -0.263,-0.409 -0.665,-0.709 -1.206,-0.898 -0.541,-0.189 -1.264,-0.285 -2.17,-0.285 h -2.849 v 11.485 h 3.157 z" />
		<path
   style="fill:#e36f1e"
   inkscape:connector-curvature="0"
   id="path31"
   d="m 614.507,348.132 v 3.419 h -8.197 v 10.346 h 6.882 l -0.307,3.42 h -6.575 v 12.143 h 8.416 v 3.332 H 601.97 v -32.659 h 12.537 z" />
	</g><path
   inkscape:connector-curvature="0"
   id="path33"
   d="m 73.775996,31.134 c -4.786,-5.269 -10.372,-9.037 -16.665,-11.256 v 14.88 c 2.042,1.273 3.979,2.832 5.79,4.687 5.706,5.845 8.599,13.016 8.599,21.312 0,5.353 -1.314,10.41 -3.906,15.034 -2.588,4.609 -6.123,8.215 -10.509,10.715 -4.398,2.508 -9.302,3.779 -14.572,3.779 -5.271,0 -10.176,-1.271 -14.574,-3.779 -4.388,-2.502 -7.922,-6.106 -10.506,-10.715 -2.594,-4.624 -3.908,-9.682 -3.908,-15.034 0,-8.298 2.881,-15.47 8.564,-21.314 1.617,-1.663 3.341,-3.082 5.15,-4.278 V 20.139 c -6.02,2.26 -11.38,5.965 -15.992,11.07 C 3.7829955,39.453 -4.4948167e-6,49.322 -4.4948167e-6,60.542 -4.4948167e-6,71.868 3.9949955,81.899 11.874996,90.36 c 7.91,8.495 18.23,12.803 30.674,12.803 12.395,0 22.689,-4.308 30.6,-12.802 7.88,-8.462 11.876,-18.494 11.876,-29.819 -0.001,-11.267 -3.784,-21.16 -11.249,-29.408 z" /><rect
   style="fill:#e36f1e"
   id="rect35"
   height="63.720001"
   width="13.012"
   y="-1.4210855e-14"
   x="35.668983" />
<g
   id="Layer_2"
   transform="translate(-338.774,-233.069)">
</g>
<g
   id="Dieline"
   transform="translate(-338.774,-233.069)">
	<g
   id="g39">
		<path
   d="m 28.279,544.148 c 0,-0.281 -0.014,-0.435 -0.04,-1.051 h 1.217 l 0.025,1.063 c 0.602,-1.01 1.664,-1.165 2.188,-1.165 1.382,0 2.701,0.949 2.701,3.329 0,2.394 -1.396,3.442 -2.931,3.442 -0.935,0 -1.625,-0.397 -1.971,-0.96 v 3.187 h -1.189 v -7.845 z m 2.955,4.738 c 0.308,0 0.947,-0.065 1.357,-0.629 0.46,-0.628 0.525,-1.549 0.525,-2.009 0,-1.152 -0.346,-2.355 -1.766,-2.355 -1.92,0 -1.92,2.035 -1.92,2.612 0,0.78 0.115,2.381 1.804,2.381 z"
   id="path41"
   inkscape:connector-curvature="0"
   style="fill:#00b9f2" />
		<path
   d="m 37.237,543.098 v 4.134 c 0,0.629 0.142,1.422 1.369,1.422 0.602,0 1.165,-0.204 1.511,-0.717 0.269,-0.381 0.269,-0.882 0.269,-1.202 v -3.637 h 1.242 v 5.225 c 0,0.127 0.025,0.844 0.038,1.203 h -1.255 l -0.025,-1.102 c -0.231,0.447 -0.666,1.165 -2.048,1.165 -1.586,0 -2.329,-0.91 -2.329,-2.175 v -4.316 h 1.228 z"
   id="path43"
   inkscape:connector-curvature="0"
   style="fill:#00b9f2" />
		<path
   d="m 44.021,544.405 c 0,-0.436 -0.026,-0.883 -0.064,-1.308 h 1.215 l 0.026,1.244 c 0.23,-0.896 0.999,-1.19 1.536,-1.27 0.358,-0.048 0.628,-0.035 0.832,-0.023 v 1.177 c -0.064,-0.025 -0.14,-0.038 -0.23,-0.05 -0.09,-0.015 -0.205,-0.015 -0.345,-0.015 -1.421,0 -1.753,0.846 -1.753,1.947 v 3.417 h -1.216 v -5.119 z"
   id="path45"
   inkscape:connector-curvature="0"
   style="fill:#00b9f2" />
		<path
   d="m 49.665,546.53 c -0.026,1.33 0.525,2.316 1.843,2.316 0.781,0 1.408,-0.411 1.51,-1.332 h 1.203 c -0.039,0.32 -0.089,0.846 -0.55,1.345 -0.281,0.319 -0.921,0.856 -2.214,0.856 -2.022,0 -2.982,-1.254 -2.982,-3.29 0,-1.266 0.256,-2.315 1.268,-3.017 0.614,-0.438 1.382,-0.477 1.753,-0.477 2.879,0 2.815,2.547 2.789,3.598 h -4.62 z m 3.392,-0.844 c 0.012,-0.615 -0.103,-1.896 -1.587,-1.896 -0.781,0 -1.728,0.475 -1.754,1.896 h 3.341 z"
   id="path47"
   inkscape:connector-curvature="0"
   style="fill:#00b9f2" />
		<path
   d="m 59.596,543.958 -0.025,-0.86 h 1.216 v 0.935 c 0.614,-1.008 1.484,-1.1 2.035,-1.1 1.421,0 1.869,0.729 2.099,1.202 0.217,-0.355 0.742,-1.202 2.163,-1.202 0.921,0 2.354,0.385 2.354,2.278 v 4.314 h -1.215 v -4.122 c 0,-0.563 -0.103,-0.806 -0.218,-0.974 -0.204,-0.295 -0.614,-0.562 -1.229,-0.562 -0.781,0 -1.203,0.448 -1.37,0.678 -0.281,0.396 -0.281,1.102 -0.281,1.383 v 3.598 h -1.217 v -4.248 c 0,-0.795 -0.461,-1.41 -1.408,-1.41 -0.819,0 -1.266,0.513 -1.407,0.703 -0.269,0.371 -0.282,0.897 -0.282,1.306 v 3.649 h -1.215 v -5.568 z"
   id="path49"
   inkscape:connector-curvature="0"
   style="fill:#f7941e" />
		<path
   d="m 75.607,549.525 c -0.089,-0.321 -0.115,-0.627 -0.115,-0.962 -0.576,1.062 -1.447,1.166 -1.983,1.166 -1.472,0 -2.266,-0.831 -2.266,-1.895 0,-0.512 0.179,-1.33 1.126,-1.882 0.691,-0.384 1.715,-0.422 2.227,-0.422 0.307,0 0.5,0.013 0.87,0.038 0,-0.792 0,-1.14 -0.23,-1.421 -0.243,-0.318 -0.768,-0.421 -1.114,-0.421 -1.216,0 -1.279,0.829 -1.292,1.086 h -1.203 c 0.038,-0.331 0.076,-0.781 0.447,-1.216 0.487,-0.536 1.396,-0.689 2.074,-0.689 0.934,0 1.933,0.294 2.277,0.947 0.206,0.385 0.218,0.689 0.218,0.984 l -0.05,3.071 c 0,0.104 0.012,0.96 0.103,1.614 h -1.089 z m -0.832,-3.161 c -0.486,0 -2.316,0 -2.316,1.305 0,0.41 0.255,1.113 1.33,1.113 0.615,0 1.076,-0.243 1.37,-0.69 0.269,-0.436 0.281,-0.794 0.307,-1.691 -0.218,-0.025 -0.396,-0.037 -0.691,-0.037 z"
   id="path51"
   inkscape:connector-curvature="0"
   style="fill:#f7941e" />
		<path
   d="m 78.871,544.405 c 0,-0.436 -0.026,-0.883 -0.064,-1.308 h 1.216 l 0.025,1.244 c 0.231,-0.896 0.999,-1.19 1.536,-1.27 0.359,-0.048 0.627,-0.035 0.832,-0.023 v 1.177 c -0.064,-0.025 -0.141,-0.038 -0.231,-0.05 -0.089,-0.015 -0.204,-0.015 -0.345,-0.015 -1.421,0 -1.753,0.846 -1.753,1.947 v 3.417 h -1.216 v -5.119 z"
   id="path53"
   inkscape:connector-curvature="0"
   style="fill:#f7941e" />
		<path
   d="m 83.696,540.221 h 1.19 v 5.503 l 2.406,-2.626 h 1.575 l -2.714,2.729 2.88,3.699 h -1.575 l -2.572,-3.469 v 3.469 h -1.19 v -9.305 z"
   id="path55"
   inkscape:connector-curvature="0"
   style="fill:#f7941e" />
		<path
   d="m 91.167,546.53 c -0.025,1.33 0.525,2.316 1.843,2.316 0.781,0 1.408,-0.411 1.51,-1.332 h 1.203 c -0.038,0.32 -0.089,0.846 -0.55,1.345 -0.282,0.319 -0.921,0.856 -2.214,0.856 -2.022,0 -2.983,-1.254 -2.983,-3.29 0,-1.266 0.257,-2.315 1.268,-3.017 0.614,-0.438 1.382,-0.477 1.753,-0.477 2.879,0 2.815,2.547 2.791,3.598 h -4.621 z m 3.392,-0.844 c 0.013,-0.615 -0.103,-1.896 -1.587,-1.896 -0.78,0 -1.728,0.475 -1.753,1.896 h 3.34 z"
   id="path57"
   inkscape:connector-curvature="0"
   style="fill:#f7941e" />
		<path
   d="m 96.568,543.072 h 1.139 v -1.343 l 1.19,-0.385 v 1.728 h 1.433 v 0.886 h -1.433 v 3.852 c 0,0.319 0,0.856 0.857,0.856 0.243,0 0.473,-0.037 0.576,-0.062 v 0.935 c -0.217,0.038 -0.563,0.075 -0.999,0.075 -1.1,0 -1.625,-0.318 -1.625,-1.368 v -4.287 h -1.139 v -0.887 z"
   id="path59"
   inkscape:connector-curvature="0"
   style="fill:#f7941e" />
		<path
   d="m 101.7,540.311 h 1.447 v 1.317 H 101.7 v -1.317 z m 0.129,2.787 h 1.204 v 6.428 h -1.204 v -6.428 z"
   id="path61"
   inkscape:connector-curvature="0"
   style="fill:#f7941e" />
		<path
   d="m 105.412,543.843 -0.013,-0.745 h 1.204 l 0.012,1.037 c 0.142,-0.268 0.603,-1.163 2.061,-1.163 0.577,0 2.33,0.218 2.33,2.188 v 4.365 h -1.229 v -4.083 c 0,-0.422 -0.051,-0.807 -0.346,-1.101 -0.307,-0.295 -0.729,-0.436 -1.139,-0.436 -0.87,0 -1.677,0.626 -1.677,1.92 v 3.699 h -1.203 v -5.681 z"
   id="path63"
   inkscape:connector-curvature="0"
   style="fill:#f7941e" />
		<path
   d="m 114.345,550.022 c 0.052,0.718 0.359,1.257 1.497,1.257 1.677,0 1.703,-1.217 1.703,-2.957 -0.511,1.062 -1.728,1.089 -2.112,1.089 -0.588,0 -1.434,-0.13 -1.971,-0.794 -0.551,-0.653 -0.729,-1.513 -0.729,-2.369 0,-2.176 1.28,-3.236 2.854,-3.236 1.292,0 1.765,0.639 2.021,0.971 l 0.014,-0.885 h 1.164 l -0.024,1.167 -0.014,4.017 c 0,1.552 -0.051,2.177 -0.307,2.663 -0.537,1.024 -1.792,1.153 -2.674,1.153 -2.573,0 -2.65,-1.203 -2.701,-2.075 h 1.279 z m 2.803,-2.148 c 0.256,-0.335 0.435,-0.678 0.435,-1.845 0,-0.806 -0.179,-1.265 -0.5,-1.6 -0.319,-0.344 -0.832,-0.562 -1.382,-0.562 -1.523,0 -1.728,1.536 -1.728,2.355 0,0.984 0.295,2.291 1.766,2.291 0.705,10e-4 1.115,-0.256 1.409,-0.639 z"
   id="path65"
   inkscape:connector-curvature="0"
   style="fill:#f7941e" />
		<path
   d="m 124.457,540.311 h 1.446 v 1.317 h -1.446 v -1.317 z m 0.127,2.787 h 1.203 v 6.428 h -1.203 v -6.428 z"
   id="path67"
   inkscape:connector-curvature="0"
   style="fill:#f7941e" />
		<path
   d="m 128.167,543.843 -0.012,-0.745 h 1.203 l 0.012,1.037 c 0.141,-0.268 0.602,-1.163 2.061,-1.163 0.575,0 2.329,0.218 2.329,2.188 v 4.365 h -1.229 v -4.083 c 0,-0.422 -0.051,-0.807 -0.346,-1.101 -0.307,-0.295 -0.729,-0.436 -1.139,-0.436 -0.871,0 -1.677,0.626 -1.677,1.92 v 3.699 h -1.204 v -5.681 z"
   id="path69"
   inkscape:connector-curvature="0"
   style="fill:#f7941e" />
		<path
   d="m 139.61,545.16 c -0.025,-0.295 -0.115,-1.343 -1.279,-1.343 -1.664,0 -1.664,1.932 -1.664,2.418 0,1.32 0.319,2.547 1.599,2.547 1.023,0 1.37,-0.768 1.395,-1.395 h 1.216 c -0.077,1.253 -1.011,2.304 -2.598,2.304 -0.436,0 -1.434,-0.09 -2.112,-0.832 -0.384,-0.448 -0.768,-1.127 -0.768,-2.459 0,-2.673 1.638,-3.468 2.917,-3.468 0.423,0 1.382,0.092 1.971,0.795 0.475,0.55 0.512,1.073 0.538,1.433 h -1.215 z"
   id="path71"
   inkscape:connector-curvature="0"
   style="fill:#f7941e" />
		<path
   d="m 142.26,547.989 h 1.42 v 1.536 h -1.42 v -1.536 z"
   id="path73"
   inkscape:connector-curvature="0"
   style="fill:#f7941e" />
	</g>
	<g
   id="g75">
		<path
   d="m 28.951,559.413 h 2.938 c 2.638,0 4.114,1.319 4.114,4.078 0,2.866 -1.259,4.485 -4.114,4.485 h -2.938 v -8.563 z m 1.139,7.605 h 1.895 c 0.78,0 2.878,-0.217 2.878,-3.371 0,-2.038 -0.755,-3.273 -2.854,-3.273 H 30.09 v 6.644 z"
   id="path77"
   inkscape:connector-curvature="0"
   style="fill:#00aeef" />
		<path
   d="m 37.062,564.163 h 3.466 v 0.959 h -3.466 v -0.959 z"
   id="path79"
   inkscape:connector-curvature="0"
   style="fill:#00aeef" />
		<path
   d="m 45.4,567.977 h -1.02 v -6.093 h -2.207 v -0.815 c 1.163,0 2.219,-0.312 2.447,-1.595 h 0.78 v 8.503 z"
   id="path81"
   inkscape:connector-curvature="0"
   style="fill:#00aeef" />
		<path
   d="m 52.073,567.977 h -1.02 v -6.093 h -2.207 v -0.815 c 1.164,0 2.219,-0.312 2.447,-1.595 h 0.779 v 8.503 z"
   id="path83"
   inkscape:connector-curvature="0"
   style="fill:#00aeef" />
		<path
   d="m 57.809,559.474 c 2.663,0 2.831,2.446 2.831,4.329 0,1.871 -0.168,4.317 -2.831,4.317 -2.662,0 -2.83,-2.446 -2.83,-4.317 0,-1.883 0.168,-4.329 2.83,-4.329 z m 0,7.747 c 1.739,0 1.751,-2.158 1.751,-3.43 0,-1.26 -0.012,-3.418 -1.751,-3.418 -1.739,0 -1.751,2.158 -1.751,3.418 0,1.271 0.012,3.43 1.751,3.43 z"
   id="path85"
   inkscape:connector-curvature="0"
   style="fill:#00aeef" />
		<path
   d="m 62.754,565.926 c 0.072,0.827 0.744,1.295 1.559,1.295 1.248,0 1.859,-1.091 1.919,-3.286 l -0.024,-0.023 c -0.384,0.72 -1.139,1.175 -1.967,1.175 -1.727,0 -2.687,-1.163 -2.687,-2.842 0,-1.644 1.151,-2.771 2.794,-2.771 1.583,0 2.915,0.852 2.915,4.065 0,2.938 -0.888,4.581 -2.951,4.581 -1.427,0 -2.446,-0.731 -2.578,-2.194 h 1.02 z m 1.547,-5.553 c -1.211,0 -1.667,0.971 -1.667,2.015 0,0.936 0.695,1.799 1.679,1.799 1.068,0 1.739,-0.863 1.739,-1.871 0,-1.044 -0.612,-1.943 -1.751,-1.943 z"
   id="path87"
   inkscape:connector-curvature="0"
   style="fill:#00aeef" />
		<path
   d="m 74.417,559.413 h 1.259 l 3.346,8.563 h -1.259 l -0.936,-2.578 h -3.622 l -0.959,2.578 h -1.175 l 3.346,-8.563 z m -0.852,5.025 h 2.902 l -1.427,-3.994 h -0.024 l -1.451,3.994 z"
   id="path89"
   inkscape:connector-curvature="0"
   style="fill:#00aeef" />
		<path
   d="m 81.919,568.804 c -0.468,1.212 -0.887,1.655 -1.799,1.655 -0.24,0 -0.48,-0.023 -0.708,-0.107 v -0.936 c 0.192,0.06 0.396,0.144 0.6,0.144 0.419,0 0.647,-0.204 0.839,-0.563 l 0.42,-1.056 -2.459,-6.164 h 1.151 l 1.811,5.073 H 81.8 l 1.739,-5.073 h 1.08 l -2.7,7.027 z"
   id="path91"
   inkscape:connector-curvature="0"
   style="fill:#00aeef" />
		<path
   d="m 88.159,561.632 c 1.967,0 3.011,1.428 3.011,3.25 0,1.812 -1.043,3.238 -3.011,3.238 -1.967,0 -3.01,-1.427 -3.01,-3.238 0,-1.822 1.043,-3.25 3.01,-3.25 z m 0,5.589 c 1.068,0 1.931,-0.839 1.931,-2.339 0,-1.511 -0.863,-2.351 -1.931,-2.351 -1.067,0 -1.931,0.84 -1.931,2.351 0.001,1.5 0.864,2.339 1.931,2.339 z"
   id="path93"
   inkscape:connector-curvature="0"
   style="fill:#00aeef" />
		<path
   d="m 93.788,561.776 h 1.235 v 0.899 h -1.235 v 3.85 c 0,0.468 0.132,0.552 0.768,0.552 h 0.468 v 0.899 h -0.779 c -1.056,0 -1.475,-0.216 -1.475,-1.355 v -3.945 h -1.056 v -0.899 h 1.056 v -1.859 h 1.019 v 1.858 z"
   id="path95"
   inkscape:connector-curvature="0"
   style="fill:#00aeef" />
		<path
   d="m 97.567,561.776 h 1.235 v 0.899 h -1.235 v 3.85 c 0,0.468 0.132,0.552 0.768,0.552 h 0.468 v 0.899 h -0.779 c -1.056,0 -1.475,-0.216 -1.475,-1.355 v -3.945 h -1.056 v -0.899 h 1.056 v -1.859 h 1.019 v 1.858 z"
   id="path97"
   inkscape:connector-curvature="0"
   style="fill:#00aeef" />
		<path
   d="m 105.221,566.01 c -0.276,1.367 -1.259,2.11 -2.65,2.11 -1.979,0 -2.915,-1.367 -2.975,-3.262 0,-1.859 1.224,-3.227 2.915,-3.227 2.195,0 2.866,2.051 2.807,3.55 h -4.642 c -0.036,1.08 0.576,2.039 1.931,2.039 0.84,0 1.427,-0.407 1.607,-1.211 h 1.007 z m -0.983,-1.728 c -0.048,-0.971 -0.78,-1.751 -1.787,-1.751 -1.067,0 -1.703,0.804 -1.775,1.751 h 3.562 z"
   id="path99"
   inkscape:connector-curvature="0"
   style="fill:#00aeef" />
		<path
   d="m 109.88,559.413 h 5.625 v 0.96 h -4.486 v 2.723 h 3.934 v 0.959 h -3.934 v 3.922 h -1.139 v -8.564 z"
   id="path101"
   inkscape:connector-curvature="0"
   style="fill:#00aeef" />
		<path
   d="m 116.816,559.413 h 1.14 v 8.563 h -1.14 v -8.563 z"
   id="path103"
   inkscape:connector-curvature="0"
   style="fill:#00aeef" />
		<path
   d="m 119.863,559.413 h 1.211 l 4.51,6.944 h 0.024 v -6.944 h 1.079 v 8.563 h -1.247 l -4.474,-6.872 h -0.024 v 6.872 h -1.08 v -8.563 z"
   id="path105"
   inkscape:connector-curvature="0"
   style="fill:#00aeef" />
		<path
   d="m 130.866,559.413 h 1.259 l 3.346,8.563 h -1.259 l -0.936,-2.578 h -3.622 l -0.959,2.578 h -1.175 l 3.346,-8.563 z m -0.851,5.025 h 2.902 l -1.427,-3.994 h -0.024 l -1.451,3.994 z"
   id="path107"
   inkscape:connector-curvature="0"
   style="fill:#00aeef" />
		<path
   d="m 136.315,559.413 h 1.139 v 7.604 h 4.534 v 0.959 h -5.673 v -8.563 z"
   id="path109"
   inkscape:connector-curvature="0"
   style="fill:#00aeef" />
		<path
   d="m 145.916,562.483 c -0.084,-1.727 0.936,-3.01 2.734,-3.01 1.487,0 2.663,0.863 2.663,2.446 0,1.499 -1.007,2.255 -2.063,2.914 -1.067,0.648 -2.183,1.188 -2.387,2.243 h 4.366 v 0.899 h -5.553 c 0.167,-2.015 1.187,-2.734 2.386,-3.479 1.439,-0.887 2.171,-1.415 2.171,-2.59 0,-0.924 -0.744,-1.535 -1.643,-1.535 -1.188,0 -1.691,1.091 -1.655,2.11 h -1.019 z"
   id="path111"
   inkscape:connector-curvature="0"
   style="fill:#00aeef" />
		<path
   d="m 159.016,561.992 c -0.24,-1.212 -1.211,-1.823 -2.398,-1.823 -2.039,0 -2.902,1.679 -2.902,3.466 0,1.955 0.863,3.586 2.914,3.586 1.5,0 2.363,-1.055 2.471,-2.471 h 1.14 c -0.216,2.135 -1.547,3.431 -3.706,3.431 -2.663,0 -3.958,-1.967 -3.958,-4.462 0,-2.482 1.416,-4.51 4.054,-4.51 1.787,0 3.262,0.96 3.526,2.783 h -1.141 z"
   id="path113"
   inkscape:connector-curvature="0"
   style="fill:#00aeef" />
		<path
   d="m 161.719,566.646 h 1.331 v 1.331 h -1.331 v -1.331 z"
   id="path115"
   inkscape:connector-curvature="0"
   style="fill:#00aeef" />
		<path
   d="m 33.304,580.242 c 0,1.163 -0.612,2.339 -2.531,2.339 -1.595,0 -2.495,-0.888 -2.495,-2.495 v -0.527 h 1.14 v 0.359 c 0,0.996 0.264,1.703 1.379,1.703 1.043,0 1.368,-0.6 1.368,-1.547 v -6.261 h 1.139 v 6.429 z"
   id="path117"
   inkscape:connector-curvature="0"
   style="fill:#00aeef" />
		<path
   d="m 40.144,582.377 h -0.959 v -0.983 h -0.024 c -0.432,0.768 -1.127,1.127 -2.015,1.127 -1.631,0 -2.135,-0.936 -2.135,-2.267 v -4.077 h 1.02 v 4.197 c 0,0.756 0.479,1.247 1.259,1.247 1.235,0 1.835,-0.827 1.835,-1.942 v -3.502 h 1.02 v 6.2 z"
   id="path119"
   inkscape:connector-curvature="0"
   style="fill:#00aeef" />
		<path
   d="m 41.683,576.177 h 0.959 v 0.983 h 0.024 c 0.432,-0.768 1.127,-1.128 2.015,-1.128 1.631,0 2.135,0.936 2.135,2.267 v 4.078 h -1.02 v -4.197 c 0,-0.756 -0.48,-1.248 -1.259,-1.248 -1.235,0 -1.835,0.828 -1.835,1.943 v 3.502 h -1.02 v -6.2 z"
   id="path121"
   inkscape:connector-curvature="0"
   style="fill:#00aeef" />
		<path
   d="m 53.644,580.41 c -0.276,1.367 -1.259,2.11 -2.65,2.11 -1.979,0 -2.915,-1.367 -2.975,-3.262 0,-1.859 1.224,-3.227 2.915,-3.227 2.195,0 2.866,2.051 2.807,3.55 h -4.642 c -0.036,1.08 0.576,2.039 1.931,2.039 0.84,0 1.427,-0.407 1.607,-1.211 h 1.007 z m -0.984,-1.727 c -0.048,-0.971 -0.78,-1.751 -1.787,-1.751 -1.067,0 -1.703,0.804 -1.775,1.751 h 3.562 z"
   id="path123"
   inkscape:connector-curvature="0"
   style="fill:#00aeef" />
		<path
   d="m 62.332,576.045 c -0.096,-0.768 -0.624,-1.271 -1.427,-1.271 -1.739,0 -2.015,1.919 -2.063,3.226 l 0.024,0.024 c 0.48,-0.779 1.2,-1.115 2.123,-1.115 1.631,0 2.603,1.188 2.603,2.758 0,1.235 -0.696,2.854 -2.842,2.854 -2.519,0 -2.927,-2.303 -2.927,-4.09 0,-2.338 0.708,-4.557 3.13,-4.557 1.403,0 2.279,0.791 2.399,2.171 h -1.02 z m -3.298,3.682 c 0,1.056 0.648,1.895 1.763,1.895 1.104,0 1.715,-0.875 1.715,-1.883 0,-1.056 -0.552,-1.931 -1.715,-1.931 -1.14,0 -1.763,0.851 -1.763,1.919 z"
   id="path125"
   inkscape:connector-curvature="0"
   style="fill:#00aeef" />
		<path
   d="m 65.035,581.046 h 1.331 v 1.211 c 0,0.899 -0.396,1.619 -1.319,1.883 v -0.6 c 0.54,-0.18 0.72,-0.779 0.696,-1.163 h -0.708 v -1.331 z"
   id="path127"
   inkscape:connector-curvature="0"
   style="fill:#00aeef" />
		<path
   d="m 71.239,576.884 c -0.084,-1.727 0.936,-3.01 2.734,-3.01 1.487,0 2.663,0.863 2.663,2.446 0,1.499 -1.007,2.255 -2.063,2.914 -1.067,0.648 -2.183,1.188 -2.387,2.243 h 4.366 v 0.899 h -5.553 c 0.168,-2.015 1.188,-2.734 2.387,-3.479 1.439,-0.887 2.171,-1.415 2.171,-2.59 0,-0.924 -0.744,-1.535 -1.643,-1.535 -1.187,0 -1.691,1.091 -1.655,2.11 h -1.02 z"
   id="path129"
   inkscape:connector-curvature="0"
   style="fill:#00aeef" />
		<path
   d="m 80.717,573.874 c 2.663,0 2.831,2.446 2.831,4.329 0,1.871 -0.168,4.317 -2.831,4.317 -2.663,0 -2.83,-2.446 -2.83,-4.317 0,-1.883 0.167,-4.329 2.83,-4.329 z m 0,7.747 c 1.739,0 1.751,-2.158 1.751,-3.43 0,-1.26 -0.012,-3.418 -1.751,-3.418 -1.739,0 -1.751,2.158 -1.751,3.418 0,1.272 0.012,3.43 1.751,3.43 z"
   id="path131"
   inkscape:connector-curvature="0"
   style="fill:#00aeef" />
		<path
   d="m 88.325,582.377 h -1.02 v -6.093 h -2.207 v -0.815 c 1.164,0 2.219,-0.312 2.447,-1.595 h 0.779 v 8.503 z"
   id="path133"
   inkscape:connector-curvature="0"
   style="fill:#00aeef" />
		<path
   d="m 91.255,576.884 c -0.084,-1.727 0.936,-3.01 2.734,-3.01 1.487,0 2.663,0.863 2.663,2.446 0,1.499 -1.007,2.255 -2.063,2.914 -1.067,0.648 -2.183,1.188 -2.387,2.243 h 4.366 v 0.899 h -5.553 c 0.167,-2.015 1.187,-2.734 2.386,-3.479 1.439,-0.887 2.171,-1.415 2.171,-2.59 0,-0.924 -0.744,-1.535 -1.643,-1.535 -1.188,0 -1.691,1.091 -1.655,2.11 h -1.019 z"
   id="path135"
   inkscape:connector-curvature="0"
   style="fill:#00aeef" />
		<path
   d="m 165.529,566.021 c 0.036,0.912 0.828,1.199 1.667,1.199 0.636,0 1.5,-0.144 1.5,-0.923 0,-0.792 -1.008,-0.924 -2.027,-1.151 -1.008,-0.229 -2.027,-0.564 -2.027,-1.751 0,-1.248 1.235,-1.764 2.314,-1.764 1.367,0 2.459,0.432 2.542,1.943 h -1.019 c -0.072,-0.792 -0.768,-1.044 -1.439,-1.044 -0.612,0 -1.319,0.168 -1.319,0.792 0,0.731 1.08,0.852 2.027,1.079 1.02,0.229 2.027,0.563 2.027,1.764 0,1.475 -1.379,1.954 -2.638,1.954 -1.392,0 -2.567,-0.563 -2.627,-2.099 h 1.019 z"
   id="path137"
   inkscape:connector-curvature="0"
   style="fill:#00aeef" />
		<path
   d="m 173.7,567.977 h -1.091 l -2.303,-6.2 h 1.139 l 1.739,5.169 h 0.024 l 1.691,-5.169 h 1.067 l -2.266,6.2 z"
   id="path139"
   inkscape:connector-curvature="0"
   style="fill:#00aeef" />
		<path
   d="m 182.255,567.449 c 0,2.015 -0.923,3.046 -2.878,3.046 -1.164,0 -2.507,-0.468 -2.566,-1.823 h 1.019 c 0.048,0.744 0.936,1.008 1.607,1.008 1.331,0 1.859,-0.96 1.859,-2.351 v -0.408 h -0.024 c -0.336,0.756 -1.151,1.128 -1.931,1.128 -1.847,0 -2.771,-1.451 -2.771,-3.143 0,-1.463 0.72,-3.274 2.867,-3.274 0.779,0 1.475,0.348 1.847,1.031 h -0.012 0.024 v -0.887 h 0.959 v 5.673 z m -1.007,-2.699 c 0,-1.091 -0.48,-2.219 -1.763,-2.219 -1.307,0 -1.835,1.067 -1.835,2.255 0,1.115 0.408,2.363 1.751,2.363 1.343,0 1.847,-1.235 1.847,-2.399 z"
   id="path141"
   inkscape:connector-curvature="0"
   style="fill:#00aeef" />
	</g>
</g>
</svg>