<?xml version="1.0" encoding="UTF-8" standalone="no"?>
<!-- Created with Inkscape (http://www.inkscape.org/) -->

<svg
   xmlns:dc="http://purl.org/dc/elements/1.1/"
   xmlns:cc="http://creativecommons.org/ns#"
   xmlns:rdf="http://www.w3.org/1999/02/22-rdf-syntax-ns#"
   xmlns:svg="http://www.w3.org/2000/svg"
   xmlns="http://www.w3.org/2000/svg"
   xmlns:sodipodi="http://sodipodi.sourceforge.net/DTD/sodipodi-0.dtd"
   xmlns:inkscape="http://www.inkscape.org/namespaces/inkscape"
   width="41.771358mm"
   height="121.75701mm"
   viewBox="0 0 41.771358 121.75701"
   version="1.1"
   id="svg999"
   inkscape:version="0.92.3 (2405546, 2018-03-11)"
   sodipodi:docname="ayotte-software-logo-greyscale-8-90.svg">
  <defs
     id="defs993" />
  <sodipodi:namedview
     id="base"
     pagecolor="#ffffff"
     bordercolor="#666666"
     borderopacity="1.0"
     inkscape:pageopacity="0.0"
     inkscape:pageshadow="2"
     inkscape:zoom="1.4"
     inkscape:cx="-54.653894"
     inkscape:cy="76.87437"
     inkscape:document-units="mm"
     inkscape:current-layer="layer1"
     showgrid="false"
     fit-margin-top="0"
     fit-margin-left="0"
     fit-margin-right="0"
     fit-margin-bottom="0"
     inkscape:window-width="3840"
     inkscape:window-height="2088"
     inkscape:window-x="0"
     inkscape:window-y="35"
     inkscape:window-maximized="1" />
  <metadata
     id="metadata996">
    <rdf:RDF>
      <cc:Work
         rdf:about="">
        <dc:format>image/svg+xml</dc:format>
        <dc:type
           rdf:resource="http://purl.org/dc/dcmitype/StillImage" />
        <dc:title></dc:title>
      </cc:Work>
    </rdf:RDF>
  </metadata>
  <g
     inkscape:label="Layer 1"
     inkscape:groupmode="layer"
     id="layer1"
     transform="translate(-80.411941,-81.15126)">
    <g
       transform="matrix(0,0.26458333,-0.26458333,0,181.31344,39.012131)"
       id="Layer_1"
       style="opacity:0.07999998">
      <path
         inkscape:connector-curvature="0"
         d="m 230.911,252.574 v 11.324 c -3.373,-3.838 -7.159,-6.871 -11.3,-9.047 -5.424,-2.849 -11.557,-4.294 -18.229,-4.294 -11.541,0 -21.553,4.211 -29.759,12.516 -8.2,8.3 -12.357,18.43 -12.357,30.105 0,11.913 4.119,22.173 12.242,30.494 8.134,8.333 18.088,12.559 29.586,12.559 6.467,0 12.515,-1.366 17.975,-4.059 4.261,-2.102 8.229,-5.036 11.842,-8.751 v 10.793 h 13.236 v -81.641 h -13.236 z m 0.648,41.217 c 0,5.631 -1.271,10.756 -3.78,15.231 -2.5,4.457 -6.123,8.043 -10.77,10.66 -4.666,2.628 -9.669,3.96 -14.87,3.96 -5.145,0 -10.029,-1.339 -14.52,-3.98 -4.494,-2.642 -8.126,-6.392 -10.797,-11.146 -2.675,-4.76 -4.031,-9.811 -4.031,-15.014 0,-5.25 1.344,-10.301 3.995,-15.013 2.646,-4.704 6.252,-8.405 10.719,-10.999 4.471,-2.596 9.418,-3.912 14.706,-3.912 8.226,0 15.245,2.906 20.865,8.639 5.629,5.743 8.483,13.002 8.483,21.574 z"
         id="path2" />
      <polygon
         points="268.481,252.574 254.216,252.574 287.107,326.638 263.976,381.206 278.223,381.206 333.728,252.574 319.395,252.574 294.312,310.452 "
         id="polygon4" />
      <polygon
         points="477.298,264.587 477.298,252.574 461.312,252.574 461.312,223.484 447.932,223.484 447.932,252.574 434.18,252.574 434.18,264.587 447.932,264.587 447.932,334.215 461.312,334.215 461.312,264.587 "
         id="polygon6" />
      <polygon
         points="527.27,264.587 527.27,252.574 511.283,252.574 511.283,223.484 497.903,223.484 497.903,252.574 484.151,252.574 484.151,264.587 497.903,264.587 497.903,334.215 511.283,334.215 511.283,264.587 "
         id="polygon8" />
      <path
         inkscape:connector-curvature="0"
         d="m 605.282,305.722 c -2.974,4.944 -5.748,8.552 -8.248,10.722 -2.482,2.154 -5.548,3.91 -9.111,5.221 -3.572,1.312 -7.297,1.979 -11.073,1.979 -7.873,0 -14.3,-2.69 -19.648,-8.225 -4.951,-5.124 -7.702,-11.705 -8.191,-19.581 h 70.439 l -0.016,-1.665 c -0.1,-11.03 -3.129,-20.382 -9.002,-27.791 -8.267,-10.499 -19.469,-15.823 -33.294,-15.823 -13.445,0 -24.333,5.204 -32.36,15.465 -6.307,8.036 -9.504,17.318 -9.504,27.588 0,10.918 3.771,20.838 11.21,29.481 7.5,8.719 18.009,13.14 31.231,13.14 5.94,0 11.352,-0.921 16.086,-2.738 4.738,-1.818 9.062,-4.508 12.851,-7.994 3.779,-3.477 7.147,-8.091 10.011,-13.715 l 0.739,-1.452 -11.316,-5.945 z m -54.744,-21.898 c 1.938,-5.827 4.631,-10.301 8.018,-13.321 5.189,-4.643 11.49,-6.996 18.726,-6.996 4.396,0 8.648,0.941 12.641,2.798 3.976,1.852 7.209,4.311 9.607,7.312 2.081,2.601 3.76,6.027 5.005,10.208 h -53.997 z"
         id="path10" />
      <g
         id="g28">
        <path
           style="fill:#808080"
           inkscape:connector-curvature="0"
           d="m 319.267,347.562 c 1.461,0 2.637,0.189 3.529,0.569 0.891,0.38 1.578,0.899 2.06,1.556 0.482,0.658 0.804,1.44 0.964,2.346 0.161,0.906 0.27,1.871 0.329,2.894 l -3.478,0.481 c -0.059,-0.701 -0.125,-1.329 -0.199,-1.885 -0.073,-0.555 -0.228,-1.022 -0.462,-1.402 -0.235,-0.379 -0.565,-0.664 -0.99,-0.855 -0.426,-0.189 -1.006,-0.284 -1.739,-0.284 -0.763,0 -1.373,0.103 -1.827,0.307 -0.455,0.205 -0.807,0.489 -1.056,0.854 -0.25,0.366 -0.418,0.818 -0.506,1.359 -0.088,0.541 -0.132,1.147 -0.132,1.819 0,0.848 0.095,1.585 0.286,2.214 0.191,0.629 0.462,1.184 0.814,1.666 0.352,0.482 0.771,0.906 1.255,1.271 0.483,0.365 1.019,0.723 1.606,1.073 0.88,0.497 1.738,1.017 2.575,1.556 0.835,0.542 1.584,1.214 2.245,2.018 0.66,0.804 1.188,1.797 1.584,2.98 0.396,1.183 0.595,2.682 0.595,4.493 0,2.806 -0.607,4.969 -1.819,6.488 -1.213,1.52 -3.31,2.279 -6.291,2.279 -1.462,0 -2.652,-0.181 -3.573,-0.541 -0.921,-0.36 -1.659,-0.938 -2.214,-1.731 -0.556,-0.793 -0.964,-1.833 -1.228,-3.119 -0.263,-1.286 -0.453,-2.85 -0.57,-4.691 l 3.726,-0.744 c 0.059,1.373 0.161,2.535 0.307,3.484 0.146,0.95 0.357,1.717 0.636,2.302 0.277,0.585 0.65,1.001 1.118,1.249 0.467,0.248 1.066,0.373 1.797,0.373 0.789,0 1.425,-0.117 1.907,-0.352 0.482,-0.234 0.855,-0.578 1.118,-1.031 0.263,-0.453 0.445,-1.024 0.548,-1.712 0.102,-0.688 0.153,-1.485 0.153,-2.394 0,-1.053 -0.103,-1.961 -0.307,-2.721 -0.205,-0.762 -0.504,-1.42 -0.899,-1.977 -0.395,-0.556 -0.884,-1.061 -1.468,-1.514 -0.585,-0.453 -1.243,-0.9 -1.973,-1.34 -0.789,-0.468 -1.542,-0.979 -2.258,-1.535 -0.716,-0.557 -1.359,-1.215 -1.929,-1.977 -0.57,-0.76 -1.023,-1.639 -1.359,-2.634 -0.336,-0.995 -0.504,-2.181 -0.504,-3.556 0,-1.172 0.124,-2.225 0.373,-3.162 0.248,-0.936 0.665,-1.732 1.25,-2.393 0.584,-0.658 1.366,-1.17 2.345,-1.535 0.979,-0.364 2.199,-0.546 3.661,-0.546 z"
           id="path12" />
        <path
           style="fill:#808080"
           inkscape:connector-curvature="0"
           d="m 360.472,347.562 c 2.163,0 3.836,0.35 5.02,1.052 1.184,0.701 2.06,1.753 2.63,3.156 0.57,1.403 0.913,3.163 1.03,5.282 0.117,2.119 0.176,4.596 0.176,7.43 0,2.865 -0.059,5.349 -0.176,7.453 -0.117,2.104 -0.46,3.857 -1.03,5.26 -0.57,1.403 -1.447,2.449 -2.63,3.135 -1.184,0.687 -2.857,1.03 -5.02,1.03 -2.163,0 -3.851,-0.358 -5.063,-1.073 -1.213,-0.717 -2.119,-1.775 -2.718,-3.179 -0.6,-1.403 -0.972,-3.156 -1.118,-5.261 -0.146,-2.104 -0.219,-4.559 -0.219,-7.365 0,-2.775 0.073,-5.216 0.219,-7.32 0.146,-2.104 0.519,-3.872 1.118,-5.305 0.599,-1.432 1.505,-2.505 2.718,-3.221 1.213,-0.716 2.9,-1.074 5.063,-1.074 z m 0,3.419 c -1.052,0 -1.878,0.256 -2.477,0.769 -0.6,0.512 -1.052,1.311 -1.359,2.393 -0.307,1.084 -0.504,2.481 -0.592,4.193 -0.088,1.713 -0.132,3.77 -0.132,6.169 0,2.431 0.044,4.494 0.132,6.191 0.087,1.698 0.285,3.089 0.592,4.171 0.307,1.084 0.759,1.867 1.359,2.35 0.599,0.483 1.425,0.725 2.477,0.725 1.023,0 1.819,-0.241 2.389,-0.725 0.57,-0.482 0.993,-1.266 1.271,-2.35 0.277,-1.082 0.445,-2.473 0.504,-4.171 0.058,-1.697 0.088,-3.761 0.088,-6.191 0,-2.399 -0.03,-4.456 -0.088,-6.169 -0.059,-1.712 -0.227,-3.117 -0.504,-4.215 -0.278,-1.098 -0.702,-1.895 -1.271,-2.393 -0.569,-0.498 -1.366,-0.747 -2.389,-0.747 z"
           id="path14" />
        <path
           style="fill:#808080"
           inkscape:connector-curvature="0"
           d="m 408.123,348.132 v 3.419 h -9.074 v 10.872 h 7.365 l -0.352,3.419 h -7.014 v 14.949 h -4.383 v -32.659 z"
           id="path16" />
        <path
           style="fill:#808080"
           inkscape:connector-curvature="0"
           d="m 446.393,348.132 v 3.419 h -5.567 v 29.24 h -4.34 v -29.24 h -5.437 v -3.419 z"
           id="path18" />
        <path
           style="fill:#808080"
           inkscape:connector-curvature="0"
           d="m 480.979,348.132 h 4.472 l 3.639,25.995 3.244,-25.995 h 4.559 l -5.479,32.659 h -4.252 l -3.945,-26.259 -3.814,26.259 h -4.69 l -5.436,-32.659 h 4.646 l 3.332,26.083 z"
           id="path20" />
        <path
           style="fill:#808080"
           inkscape:connector-curvature="0"
           d="m 531.523,372.943 h -6.094 l -1.358,7.848 h -4.121 l 6.488,-32.659 h 4.603 l 6.575,32.659 h -4.778 z m -5.787,-3.419 h 5.393 l -2.631,-14.291 z"
           id="path22" />
        <path
           style="fill:#808080"
           inkscape:connector-curvature="0"
           d="m 572.754,380.791 -3.124,-14.643 h -3.257 v 14.643 h -4.34 v -32.659 h 6.945 c 1.817,0 3.275,0.161 4.375,0.482 1.099,0.321 1.941,0.825 2.527,1.513 0.587,0.687 0.975,1.556 1.165,2.607 0.19,1.053 0.286,2.31 0.286,3.771 0,1.228 -0.052,2.353 -0.153,3.376 -0.103,1.022 -0.293,1.922 -0.57,2.695 -0.278,0.775 -0.657,1.425 -1.14,1.951 -0.482,0.525 -1.104,0.892 -1.863,1.096 l 3.989,15.168 z m -3.225,-17.974 c 0.817,0 1.468,-0.103 1.95,-0.308 0.482,-0.203 0.855,-0.547 1.118,-1.029 0.263,-0.482 0.431,-1.118 0.504,-1.907 0.072,-0.789 0.109,-1.753 0.109,-2.894 0,-0.992 -0.037,-1.833 -0.109,-2.52 -0.073,-0.688 -0.241,-1.234 -0.504,-1.645 -0.263,-0.409 -0.665,-0.709 -1.206,-0.898 -0.541,-0.189 -1.264,-0.285 -2.17,-0.285 h -2.849 v 11.485 h 3.157 z"
           id="path24" />
        <path
           style="fill:#808080"
           inkscape:connector-curvature="0"
           d="m 614.506,348.132 v 3.419 h -8.197 v 10.346 h 6.882 l -0.307,3.42 h -6.575 v 12.143 h 8.416 v 3.332 h -12.756 v -32.659 h 12.537 z"
           id="path26" />
      </g>
      <path
         inkscape:connector-curvature="0"
         d="m 412.55,264.203 c -4.786,-5.269 -10.372,-9.037 -16.665,-11.256 v 14.88 c 2.042,1.273 3.979,2.832 5.79,4.687 5.706,5.845 8.599,13.016 8.599,21.312 0,5.353 -1.314,10.41 -3.906,15.034 -2.588,4.609 -6.123,8.215 -10.509,10.715 -4.398,2.508 -9.302,3.779 -14.572,3.779 -5.271,0 -10.176,-1.271 -14.574,-3.779 -4.388,-2.502 -7.922,-6.106 -10.506,-10.715 -2.594,-4.624 -3.908,-9.682 -3.908,-15.034 0,-8.298 2.881,-15.47 8.564,-21.314 1.617,-1.663 3.341,-3.082 5.15,-4.278 v -15.026 c -6.02,2.26 -11.38,5.965 -15.992,11.07 -7.464,8.244 -11.247,18.113 -11.247,29.333 0,11.326 3.995,21.357 11.875,29.818 7.91,8.495 18.23,12.803 30.674,12.803 12.395,0 22.689,-4.308 30.6,-12.802 7.88,-8.462 11.876,-18.494 11.876,-29.819 -10e-4,-11.267 -3.784,-21.16 -11.249,-29.408 z"
         id="path30" />
      <rect
         style="fill:#808080"
         x="374.44299"
         y="233.069"
         width="13.012"
         height="63.720001"
         id="rect32" />
    </g>
  </g>
</svg>
